<?xml version="1.0" encoding="UTF-8"?>
<svg version="1.1" xmlns="http://www.w3.org/2000/svg" width="32" height="32">
<path d="M0 0 C0.74507812 0.23589844 1.49015625 0.47179688 2.2578125 0.71484375 C1.2578125 2.71484375 0.2578125 4.71484375 -0.7421875 6.71484375 C-0.1234375 7.00359375 0.4953125 7.29234375 1.1328125 7.58984375 C3.2578125 8.71484375 3.2578125 8.71484375 5.2578125 10.71484375 C5.2578125 12.03484375 5.2578125 13.35484375 5.2578125 14.71484375 C1.29960391 14.14938538 -1.4080928 12.90582027 -4.7421875 10.71484375 C-9.03902111 13.85957854 -9.03902111 13.85957854 -11.9921875 18.15234375 C-11.59496496 22.22387474 -8.75819486 24.17090711 -5.7421875 26.71484375 C-2.82701458 25.64083267 -0.96408574 24.93674199 1.2578125 22.71484375 C3.3828125 23.08984375 3.3828125 23.08984375 5.2578125 23.71484375 C4.89296824 26.26875359 4.19836283 27.80401825 2.7578125 29.96484375 C-0.4048291 32.17869287 -2.53145902 32.51804909 -6.3515625 32.37890625 C-10.97741714 31.09394663 -13.85428754 27.38365544 -16.7421875 23.71484375 C-18.25108219 20.69705438 -18.24245026 19.09161738 -17.7421875 15.71484375 C-15.72511815 12.73843655 -13.25731335 10.27267928 -10.7421875 7.71484375 C-10.05898437 6.94785156 -9.37578125 6.18085937 -8.671875 5.390625 C-7.99382813 4.65199219 -7.31578125 3.91335937 -6.6171875 3.15234375 C-5.99585938 2.47042969 -5.37453125 1.78851562 -4.734375 1.0859375 C-2.7421875 -0.28515625 -2.7421875 -0.28515625 0 0 Z " fill="#352F21" transform="translate(19.7421875,0.28515625)"/>
<path d="M0 0 C5.28 0 10.56 0 16 0 C16.33 1.32 16.66 2.64 17 4 C11.06 4 5.12 4 -1 4 C-0.67 2.68 -0.34 1.36 0 0 Z " fill="#A8A6A4" transform="translate(13,17)"/>
<path d="M0 0 C2.125 0.375 2.125 0.375 4 1 C3.63515574 3.55390984 2.94055033 5.0891745 1.5 7.25 C-2.19399371 9.8357956 -5.62563417 9.33648968 -10 9 C-9.34 8.67 -8.68 8.34 -8 8 C-7.896875 7.360625 -7.79375 6.72125 -7.6875 6.0625 C-7.460625 5.381875 -7.23375 4.70125 -7 4 C-4.5625 2.875 -4.5625 2.875 -2 2 C-1.34 1.34 -0.68 0.68 0 0 Z " fill="#DE9F1C" transform="translate(21,23)"/>
<path d="M0 0 C0.99 0 1.98 0 3 0 C3 0.66 3 1.32 3 2 C3.598125 2.268125 4.19625 2.53625 4.8125 2.8125 C7.07100952 4.03854802 8.47062652 4.93534581 10 7 C10.1875 9.6875 10.1875 9.6875 10 12 C6.23132354 11.44848637 4.65408496 9.9602745 2.1875 7.125 C1.56230469 6.42632812 0.93710937 5.72765625 0.29296875 5.0078125 C-0.13371094 4.34523438 -0.56039063 3.68265625 -1 3 C-0.67 2.01 -0.34 1.02 0 0 Z " fill="#1E1708" transform="translate(3,19)"/>
<path d="M0 0 C2.62901288 1.52206009 4.84365964 2.84365964 7 5 C7 6.32 7 7.64 7 9 C2.16743695 8.58578031 0.17320782 6.53586014 -3 3 C-2.01 2.01 -1.02 1.02 0 0 Z " fill="#E9AC36" transform="translate(18,6)"/>
</svg>
