<?xml version="1.0" standalone="no"?>
<!DOCTYPE svg PUBLIC "-//W3C//DTD SVG 20010904//EN"
 "http://www.w3.org/TR/2001/REC-SVG-20010904/DTD/svg10.dtd">
<svg version="1.0" xmlns="http://www.w3.org/2000/svg"
 width="354.000000pt" height="416.000000pt" viewBox="0 0 354.000000 416.000000"
 preserveAspectRatio="xMidYMid meet">

<g transform="translate(0.000000,416.000000) scale(0.100000,-0.100000)"
fill="#000000" stroke="none">
<path d="M0 2080 l0 -2080 1770 0 1770 0 0 2080 0 2080 -1770 0 -1770 0 0
-2080z m3520 605 c0 -950 -4 -1455 -10 -1455 -6 0 -10 -7 -10 -15 0 -8 4 -15
10 -15 5 0 9 -40 9 -95 0 -78 -3 -97 -17 -106 -16 -10 -16 -10 0 -5 11 3 16
-1 15 -13 -1 -15 -10 -11 -52 21 -27 21 -192 108 -365 194 -173 86 -337 167
-364 181 -28 14 -73 48 -100 75 -28 28 -69 66 -92 85 -30 24 -45 45 -53 76 -5
24 -21 58 -33 77 -20 29 -32 36 -76 44 l-52 9 0 78 c0 60 5 91 23 131 13 29
27 67 31 83 21 92 39 135 57 135 10 0 21 4 24 10 3 5 -4 10 -16 10 -20 0 -21
3 -14 68 9 93 24 134 47 126 14 -4 18 0 18 22 0 22 -3 25 -12 16 -24 -24 -35
-12 -36 39 -1 35 3 52 14 56 19 7 18 39 -1 47 -10 3 -14 14 -11 28 3 13 8 40
11 60 5 29 13 42 38 55 38 20 50 22 59 8 11 -15 10 -27 -3 -20 -15 10 -61 -4
-57 -16 2 -6 18 -17 36 -25 18 -7 30 -9 27 -4 -3 5 -1 11 5 15 14 9 13 48 -2
63 -10 10 -10 15 1 21 21 14 30 85 16 144 -12 51 -14 221 -3 232 9 9 -4 99
-18 120 -7 11 -15 40 -18 65 -10 83 -74 214 -142 292 -85 98 -97 109 -157 150
-154 105 -282 156 -422 169 -226 22 -253 22 -308 4 -63 -20 -184 -77 -249
-117 -26 -16 -52 -26 -58 -23 -6 4 -17 1 -25 -5 -20 -16 -19 -3 0 17 24 23 8
29 -18 7 -12 -11 -31 -26 -42 -34 -19 -14 -19 -14 -6 3 8 9 11 20 8 24 -11 10
-65 -56 -72 -89 -5 -22 -9 -27 -16 -17 -6 10 -9 11 -9 2 0 -7 -4 -13 -10 -13
-5 0 -7 6 -5 13 3 7 -4 13 -20 13 -26 2 -33 -14 -14 -33 16 -16 4 -44 -16 -37
-9 4 -14 13 -10 21 4 12 0 14 -21 9 -18 -5 -30 -3 -36 6 -6 8 -7 0 -3 -24 3
-21 1 -46 -4 -56 -7 -13 -7 -22 1 -30 9 -9 9 -12 -1 -12 -11 0 -11 -3 -1 -15
10 -12 10 -15 -4 -15 -21 0 -21 -16 1 -28 14 -9 14 -10 -6 -17 -11 -3 -19 -10
-16 -15 3 -5 -6 -17 -20 -28 -28 -22 -20 -35 19 -28 l24 4 -21 -39 c-24 -45
-16 -63 12 -28 11 13 20 19 21 13 0 -6 -3 -14 -7 -18 -4 -4 -8 -30 -9 -59 -1
-29 -7 -90 -12 -137 -5 -47 -7 -89 -4 -94 9 -16 13 -58 12 -118 0 -32 6 -73
16 -95 9 -22 17 -71 18 -118 2 -84 11 -119 28 -109 6 4 14 0 19 -7 7 -11 9
-10 9 4 0 9 5 17 11 17 6 0 8 9 4 21 -6 19 -5 20 8 8 8 -8 13 -18 10 -22 -3
-4 0 -13 5 -20 5 -7 12 -24 16 -39 5 -21 3 -28 -8 -28 -12 0 -14 -13 -13 -55
2 -54 2 -54 19 -32 10 12 18 20 19 17 1 -3 3 -28 5 -57 l5 -51 -26 11 c-14 7
-23 17 -21 24 3 7 -1 10 -10 6 -23 -9 -16 -29 26 -73 27 -29 40 -51 40 -70 0
-16 4 -30 9 -32 15 -5 18 -53 4 -50 -7 1 -13 -2 -13 -7 0 -5 -11 -8 -25 -5
-14 2 -25 2 -25 0 0 -11 47 -30 70 -28 22 2 27 -5 43 -57 10 -32 30 -83 44
-112 18 -38 27 -78 30 -136 l6 -81 -41 -12 c-61 -19 -90 -48 -121 -125 -25
-62 -33 -73 -77 -98 -27 -16 -55 -38 -63 -50 -20 -28 -45 -48 -89 -72 -20 -11
-63 -40 -94 -63 -34 -26 -62 -41 -69 -36 -7 4 -9 3 -6 -3 8 -13 -15 -33 -78
-68 -27 -15 -82 -47 -121 -71 -39 -25 -78 -43 -85 -41 -8 2 -10 2 -6 -1 15 -7
-32 -34 -51 -28 -9 3 -28 -3 -42 -14 -19 -15 -21 -20 -9 -20 9 0 19 7 23 15 3
8 10 15 16 15 17 0 11 -14 -11 -28 -24 -15 -83 -28 -61 -14 7 5 10 16 6 25 -4
12 -1 17 10 17 10 0 13 6 9 16 -4 12 0 14 23 9 23 -4 25 -3 9 4 -18 9 -18 10
-2 10 10 1 28 -4 40 -10 12 -6 1 10 -25 37 -39 41 -48 56 -50 93 -2 34 1 46
16 55 14 8 20 8 23 -1 6 -18 23 -16 23 2 0 8 5 15 10 15 6 0 10 4 10 10 0 6
-9 6 -26 0 -33 -13 -54 -13 -54 0 0 6 7 10 15 10 9 0 18 7 21 15 4 9 15 13 28
11 11 -2 15 -1 9 1 -7 3 -13 16 -13 29 0 14 -4 22 -10 19 -6 -3 -10 -15 -10
-26 0 -12 -7 -19 -20 -19 -17 0 -20 7 -20 50 0 28 -4 50 -10 50 -5 0 -10 -4
-10 -10 0 -16 -30 -12 -36 5 -4 8 -1 22 6 30 10 12 9 15 -9 15 -11 0 -21 -4
-21 -10 0 -16 -37 -49 -47 -42 -4 4 1 -3 11 -15 23 -28 10 -30 -22 -4 -22 19
-29 41 -13 41 15 0 21 43 8 58 -9 11 -8 17 6 27 24 18 23 49 -3 42 -16 -4 -18
-1 -14 27 2 17 2 25 -2 19 -14 -30 -26 -11 -21 30 4 28 3 36 -3 22 -5 -11 -9
-38 -10 -60 -1 -32 -3 -36 -10 -20 -5 11 -6 36 -4 55 4 26 3 31 -5 20 -7 -10
-10 377 -11 1211 0 674 3 1228 6 1232 4 4 792 7 1751 7 l1743 0 0 -1455z
m-1664 661 c22 -8 66 -30 98 -50 33 -19 86 -46 119 -58 110 -42 188 -136 171
-205 -4 -14 -2 -23 5 -23 6 0 11 -5 11 -11 0 -5 -4 -7 -10 -4 -12 8 -13 -7 -1
-20 4 -6 15 -31 24 -57 18 -55 11 -60 -41 -28 -52 32 -108 35 -188 11 -39 -12
-80 -21 -91 -21 -11 0 -28 -10 -36 -22 -14 -20 -18 -21 -26 -8 -8 12 -16 8
-46 -25 -19 -22 -35 -42 -35 -45 0 -3 20 -14 45 -25 25 -11 45 -23 45 -27 0
-4 15 1 33 12 45 28 54 25 18 -6 -34 -28 -39 -49 -16 -58 8 -3 15 -1 15 4 0 6
-5 10 -12 10 -6 0 -1 9 12 20 13 11 27 20 31 20 4 0 14 3 23 6 10 4 16 1 16
-9 0 -25 29 -47 63 -47 25 0 36 7 50 32 14 25 20 29 27 18 5 -8 6 -18 3 -23
-3 -4 4 -11 15 -14 30 -8 16 -31 -24 -39 -49 -9 -31 -25 19 -18 46 7 97 30 97
43 0 5 -9 20 -21 35 -15 19 -16 24 -5 20 9 -3 16 -2 16 4 0 17 -64 49 -115 56
-34 6 -44 10 -34 17 41 26 174 -12 198 -57 18 -34 51 -68 73 -76 17 -7 21 -53
20 -200 -2 -93 -5 -115 -33 -218 -10 -37 -44 -95 -69 -120 -40 -39 -80 -130
-80 -181 0 -14 -7 -40 -16 -58 -19 -38 -69 -92 -78 -84 -11 11 -36 -19 -36
-43 0 -27 -10 -30 -28 -12 -10 10 -15 10 -22 -2 -8 -12 -13 -13 -30 -2 -17 10
-20 10 -20 -3 0 -13 -19 -19 -57 -18 -7 1 -13 -3 -13 -8 0 -18 -41 -8 -48 12
-8 20 -9 20 -20 -6 -10 -21 -15 -25 -26 -16 -7 6 -20 9 -29 5 -8 -3 -18 0 -22
6 -5 8 -11 5 -20 -7 -13 -17 -14 -17 -20 -1 -6 14 -11 15 -31 6 -13 -6 -24
-17 -24 -25 0 -7 -4 -13 -10 -13 -5 0 -10 7 -10 16 0 8 -4 13 -9 9 -6 -3 -14
3 -20 12 -6 10 -11 13 -11 7 0 -7 -20 -11 -55 -10 -40 1 -61 7 -80 24 -14 12
-28 22 -31 22 -15 0 -35 32 -38 62 -2 18 -4 37 -5 42 0 4 -7 6 -14 3 -19 -7
-32 3 -51 41 -9 18 -26 42 -37 53 -10 10 -19 30 -19 44 0 14 -4 25 -9 25 -5 0
-15 16 -21 36 -7 20 -27 53 -45 73 -28 31 -57 74 -60 91 -1 3 -7 18 -13 33
-33 80 -64 337 -40 337 4 0 8 7 8 16 0 8 5 12 10 9 5 -3 10 -2 10 2 0 17 51
62 64 57 17 -6 31 12 16 21 -42 26 31 81 122 92 78 9 93 -7 23 -25 -81 -20
-106 -38 -99 -67 4 -15 0 -26 -10 -32 -10 -5 -13 -16 -9 -31 5 -20 12 -22 65
-22 39 0 57 4 53 11 -4 6 -13 8 -20 5 -13 -5 -35 12 -35 26 0 4 6 8 13 8 8 0
19 11 25 25 13 29 32 33 32 7 0 -25 20 -42 50 -42 37 0 63 22 63 53 l0 27 48
-27 c50 -27 58 -38 37 -46 -8 -3 -6 -6 5 -6 41 -2 -3 60 -61 85 -15 7 -22 13
-15 13 6 1 32 -8 57 -19 25 -10 46 -15 46 -10 0 6 9 10 19 10 10 0 37 8 60 18
l41 19 -28 25 c-45 42 -79 61 -87 48 -5 -8 -13 -5 -26 9 -14 15 -32 21 -60 21
-22 0 -50 5 -61 11 -33 18 -144 16 -165 -3 -29 -25 -61 -38 -77 -32 -9 3 -13
10 -10 15 7 12 -3 11 -27 -1 -26 -14 -24 -1 5 29 21 23 25 39 30 136 5 78 11
114 22 126 9 10 13 23 9 28 -3 6 -2 11 4 11 5 0 13 9 16 20 4 11 11 18 16 15
5 -4 9 -1 9 5 0 7 9 24 19 38 29 41 95 56 194 47 126 -13 208 -10 257 8 56 20
50 20 96 3z m-377 -572 c2 -2 -16 -4 -40 -4 -31 0 -40 3 -29 10 13 8 57 4 69
-6z m689 -4 c13 -8 8 -9 -18 -3 -19 4 -49 7 -67 7 -17 1 -29 5 -26 10 7 10 88
0 111 -14z m-1218 -100 c-19 -13 -30 -13 -30 0 0 6 10 10 23 10 18 0 19 -2 7
-10z m1342 -1026 c20 -170 26 -210 32 -224 4 -9 -7 -38 -26 -70 -26 -43 -47
-62 -101 -93 -55 -32 -70 -37 -82 -27 -9 8 -28 10 -50 6 -35 -7 -50 -20 -241
-206 -33 -33 -68 -60 -77 -60 -9 0 -34 24 -56 53 -21 30 -53 65 -70 80 -17 14
-31 33 -31 41 0 24 -22 66 -35 66 -6 0 -17 11 -22 23 -10 21 -20 25 -88 30
-97 9 -136 27 -179 86 l-34 46 0 133 c1 127 2 135 24 159 13 14 24 22 24 17 0
-5 21 -21 48 -34 26 -14 49 -28 50 -32 2 -5 11 -8 19 -8 9 0 13 -6 9 -15 -3
-8 -2 -15 3 -15 4 0 20 -11 35 -25 15 -13 33 -22 41 -19 8 4 40 -6 70 -20 31
-14 73 -30 95 -35 46 -10 252 -4 287 10 13 5 35 9 49 9 24 0 37 8 97 66 29 27
61 47 77 47 10 1 59 57 49 57 -5 0 -9 5 -9 11 0 6 9 9 20 6 11 -3 20 -1 20 4
0 4 10 5 23 0 18 -7 23 -18 29 -67z m-2212 -139 c0 -8 -5 -17 -10 -20 -6 -4
-10 5 -10 20 0 15 4 24 10 20 6 -3 10 -12 10 -20z m80 -135 c0 -5 -5 -10 -11
-10 -5 0 -7 5 -4 10 3 6 8 10 11 10 2 0 4 -4 4 -10z m20 -50 c0 -5 -2 -10 -4
-10 -3 0 -8 5 -11 10 -3 6 -1 10 4 10 6 0 11 -4 11 -10z m20 -50 c0 -5 -4 -10
-10 -10 -5 0 -10 5 -10 10 0 6 5 10 10 10 6 0 10 -4 10 -10z m62 -135 c0 -5
-5 -11 -11 -13 -6 -2 -11 4 -11 13 0 9 5 15 11 13 6 -2 11 -8 11 -13z m-35
-21 c-3 -3 -12 -4 -19 -1 -8 3 -5 6 6 6 11 1 17 -2 13 -5z m-31 -71 c-11 -11
-19 6 -11 24 8 17 8 17 12 0 3 -10 2 -21 -1 -24z m-69 -9 c-3 -3 -12 -4 -19
-1 -8 3 -5 6 6 6 11 1 17 -2 13 -5z m83 -14 c11 -8 7 -9 -15 -4 -19 3 -25 2
-17 -3 12 -9 5 -14 -50 -41 -5 -2 -8 -1 -8 3 0 3 12 11 28 17 l27 12 -25 4
-25 5 25 8 c35 10 43 10 60 -1z m-139 -87 c-20 -14 -35 5 -20 24 8 9 14 9 24
0 10 -9 9 -14 -4 -24z"/>
<path d="M1036 3735 c-9 -26 -7 -32 5 -12 6 10 9 21 6 23 -2 3 -7 -2 -11 -11z"/>
<path d="M876 3617 c3 -10 9 -15 12 -12 3 3 0 11 -7 18 -10 9 -11 8 -5 -6z"/>
<path d="M931 2514 c0 -11 3 -14 6 -6 3 7 2 16 -1 19 -3 4 -6 -2 -5 -13z"/>
<path d="M921 2392 c-1 -47 1 -53 24 -62 14 -5 25 -15 25 -21 0 -7 3 -9 7 -6
3 4 -3 18 -16 30 -12 13 -25 44 -30 68 l-9 44 -1 -53z"/>
<path d="M2560 2420 c-1 -3 -3 -20 -5 -38 -1 -18 -15 -50 -30 -72 -15 -21 -24
-44 -20 -50 16 -25 70 101 62 142 -2 13 -5 21 -7 18z"/>
<path d="M2525 2369 c-4 -6 -5 -12 -2 -15 2 -3 7 2 10 11 7 17 1 20 -8 4z"/>
<path d="M957 2255 c9 -19 20 -35 25 -35 14 0 9 38 -8 54 -26 27 -35 18 -17
-19z"/>
<path d="M2496 2224 c-4 -9 -4 -19 -1 -22 2 -3 7 3 11 12 4 9 4 19 1 22 -2 3
-7 -3 -11 -12z"/>
<path d="M30 1859 c0 -5 5 -7 10 -4 6 3 10 8 10 11 0 2 -4 4 -10 4 -5 0 -10
-5 -10 -11z"/>
<path d="M57 1749 c4 -13 8 -18 11 -10 2 7 -1 18 -6 23 -8 8 -9 4 -5 -13z"/>
<path d="M122 1664 c-2 -46 5 -58 24 -40 16 17 19 46 4 46 -5 0 -10 7 -10 15
0 33 -17 13 -18 -21z"/>
<path d="M198 1568 c9 -9 15 -9 24 0 9 9 7 12 -12 12 -19 0 -21 -3 -12 -12z"/>
<path d="M120 1530 c0 -5 7 -10 16 -10 8 0 12 5 9 10 -3 6 -10 10 -16 10 -5 0
-9 -4 -9 -10z"/>
<path d="M198 1523 c6 -2 18 -2 25 0 6 3 1 5 -13 5 -14 0 -19 -2 -12 -5z"/>
<path d="M3485 1391 c-3 -5 -1 -12 5 -16 5 -3 10 1 10 9 0 18 -6 21 -15 7z"/>
<path d="M240 1255 c0 -8 9 -15 20 -15 24 0 27 15 4 24 -22 9 -24 8 -24 -9z"/>
<path d="M315 1229 c-4 -6 -13 -8 -20 -5 -7 2 -21 -2 -32 -9 -17 -13 -16 -14
10 -15 15 0 27 -4 27 -10 0 -24 18 -7 22 20 5 32 3 36 -7 19z"/>
<path d="M321 1154 c0 -11 3 -14 6 -6 3 7 2 16 -1 19 -3 4 -6 -2 -5 -13z"/>
<path d="M1572 2360 c0 -14 2 -19 5 -12 2 6 2 18 0 25 -3 6 -5 1 -5 -13z"/>
<path d="M1669 2345 c-15 -8 -29 -21 -33 -30 -7 -20 -33 -19 -44 1 -6 10 -12
13 -16 6 -11 -17 23 -42 57 -41 18 0 26 3 20 6 -26 10 -12 23 27 23 24 0 42
-6 47 -15 11 -19 82 -23 93 -5 12 19 5 24 -16 12 -20 -11 -59 6 -80 37 -18 25
-20 25 -55 6z"/>
<path d="M1840 2345 c-15 -19 -5 -32 28 -37 20 -3 15 -9 -36 -46 -52 -37 -59
-47 -58 -75 1 -27 5 -32 29 -35 16 -2 27 1 27 8 0 27 165 -18 185 -50 5 -8 2
-10 -11 -7 -29 9 -77 11 -94 4 -8 -3 -41 -13 -73 -22 -55 -15 -61 -15 -113 4
-30 10 -56 15 -59 10 -3 -4 -18 -4 -32 2 -24 9 -52 7 -108 -8 -11 -3 -1 9 23
27 23 18 57 33 75 35 17 1 42 5 54 8 13 3 25 2 28 -4 4 -5 19 -9 35 -9 28 0
28 1 17 35 -11 39 -58 74 -92 70 -23 -3 -58 -16 -65 -24 -3 -3 -38 -17 -77
-30 -79 -26 -95 -38 -118 -94 -14 -34 -14 -40 0 -67 18 -34 23 -35 72 -15 l36
15 29 -35 c16 -19 36 -35 43 -35 8 0 35 -20 61 -45 39 -39 52 -45 87 -45 58 0
117 23 145 55 12 15 21 29 19 31 -2 2 -19 -1 -38 -6 -68 -20 -249 -6 -225 17
9 10 -32 35 -45 27 -8 -4 -9 1 -4 17 4 13 10 26 12 29 3 3 55 6 116 6 62 1
138 5 169 9 41 5 62 4 73 -5 15 -13 11 -35 -6 -25 -5 4 -9 1 -9 -4 0 -16 22
-13 48 5 17 12 35 14 76 9 49 -6 55 -5 61 14 11 35 -4 77 -38 102 -52 40 -70
48 -107 49 -35 0 -110 41 -110 60 0 6 10 10 23 10 23 0 47 17 47 33 0 4 -9 5
-20 2 -14 -4 -20 -2 -20 9 0 8 -9 20 -19 26 -25 13 -26 13 -41 -5z m-260 -305
c0 -5 -5 -10 -11 -10 -5 0 -7 5 -4 10 3 6 8 10 11 10 2 0 4 -4 4 -10z"/>
</g>
</svg>
